# Exported by Open CASCADE Technology [dev.opencascade.org]
#  Vertices: 48
#     Faces: 24
# Author: Yash
mtllib try2.mtl
g main/c1/SOLID
usemtl mat_1
v 0.000000 0.000000 0.000000
v 0.000000 0.000000 20.000000
v 0.000000 20.000000 0.000000
v 0.000000 20.000000 20.000000
vn -1.000000 -0.000000 0.000000
vn -1.000000 -0.000000 0.000000
vn -1.000000 -0.000000 0.000000
vn -1.000000 -0.000000 0.000000
vt 0.000000 0.000000
vt 20.000000 0.000000
vt 0.000000 -20.000000
vt 20.000000 -20.000000
f 2/2/2 3/3/3 1/1/1
f 2/2/2 4/4/4 3/3/3
v 20.000000 0.000000 0.000000
v 20.000000 0.000000 20.000000
v 20.000000 20.000000 0.000000
v 20.000000 20.000000 20.000000
vn 1.000000 0.000000 -0.000000
vn 1.000000 0.000000 -0.000000
vn 1.000000 0.000000 -0.000000
vn 1.000000 0.000000 -0.000000
vt 0.000000 0.000000
vt 20.000000 0.000000
vt 0.000000 -20.000000
vt 20.000000 -20.000000
f 6/6/6 5/5/5 7/7/7
f 6/6/6 7/7/7 8/8/8
v 0.000000 0.000000 0.000000
v 20.000000 0.000000 0.000000
v 0.000000 0.000000 20.000000
v 20.000000 0.000000 20.000000
vn 0.000000 -1.000000 -0.000000
vn 0.000000 -1.000000 -0.000000
vn 0.000000 -1.000000 -0.000000
vn 0.000000 -1.000000 -0.000000
vt 0.000000 0.000000
vt 0.000000 20.000000
vt 20.000000 0.000000
vt 20.000000 20.000000
f 12/12/12 9/9/9 10/10/10
f 12/12/12 11/11/11 9/9/9
v 0.000000 20.000000 0.000000
v 20.000000 20.000000 0.000000
v 0.000000 20.000000 20.000000
v 20.000000 20.000000 20.000000
vn -0.000000 1.000000 0.000000
vn -0.000000 1.000000 0.000000
vn -0.000000 1.000000 0.000000
vn -0.000000 1.000000 0.000000
vt 0.000000 0.000000
vt 0.000000 20.000000
vt 20.000000 0.000000
vt 20.000000 20.000000
f 16/16/16 14/14/14 13/13/13
f 16/16/16 13/13/13 15/15/15
v 0.000000 0.000000 0.000000
v 0.000000 20.000000 0.000000
v 20.000000 0.000000 0.000000
v 20.000000 20.000000 0.000000
vn -0.000000 -0.000000 -1.000000
vn -0.000000 -0.000000 -1.000000
vn -0.000000 -0.000000 -1.000000
vn -0.000000 -0.000000 -1.000000
vt 0.000000 0.000000
vt 0.000000 20.000000
vt 20.000000 0.000000
vt 20.000000 20.000000
f 20/20/20 17/17/17 18/18/18
f 20/20/20 19/19/19 17/17/17
v 0.000000 0.000000 20.000000
v 0.000000 20.000000 20.000000
v 20.000000 0.000000 20.000000
v 20.000000 20.000000 20.000000
vn 0.000000 0.000000 1.000000
vn 0.000000 0.000000 1.000000
vn 0.000000 0.000000 1.000000
vn 0.000000 0.000000 1.000000
vt 0.000000 0.000000
vt 0.000000 20.000000
vt 20.000000 0.000000
vt 20.000000 20.000000
f 24/24/24 22/22/22 21/21/21
f 24/24/24 21/21/21 23/23/23
g main/c2/SOLID
usemtl mat_2
v 20.000000 0.000000 0.000000
v 20.000000 0.000000 20.000000
v 20.000000 20.000000 0.000000
v 20.000000 20.000000 20.000000
vn -1.000000 -0.000000 0.000000
vn -1.000000 -0.000000 0.000000
vn -1.000000 -0.000000 0.000000
vn -1.000000 -0.000000 0.000000
vt 0.000000 0.000000
vt 20.000000 0.000000
vt 0.000000 -20.000000
vt 20.000000 -20.000000
f 26/26/26 27/27/27 25/25/25
f 26/26/26 28/28/28 27/27/27
v 40.000000 0.000000 0.000000
v 40.000000 0.000000 20.000000
v 40.000000 20.000000 0.000000
v 40.000000 20.000000 20.000000
vn 1.000000 0.000000 -0.000000
vn 1.000000 0.000000 -0.000000
vn 1.000000 0.000000 -0.000000
vn 1.000000 0.000000 -0.000000
vt 0.000000 0.000000
vt 20.000000 0.000000
vt 0.000000 -20.000000
vt 20.000000 -20.000000
f 30/30/30 29/29/29 31/31/31
f 30/30/30 31/31/31 32/32/32
v 20.000000 0.000000 0.000000
v 40.000000 0.000000 0.000000
v 20.000000 0.000000 20.000000
v 40.000000 0.000000 20.000000
vn 0.000000 -1.000000 -0.000000
vn 0.000000 -1.000000 -0.000000
vn 0.000000 -1.000000 -0.000000
vn 0.000000 -1.000000 -0.000000
vt 0.000000 0.000000
vt 0.000000 20.000000
vt 20.000000 0.000000
vt 20.000000 20.000000
f 36/36/36 33/33/33 34/34/34
f 36/36/36 35/35/35 33/33/33
v 20.000000 20.000000 0.000000
v 40.000000 20.000000 0.000000
v 20.000000 20.000000 20.000000
v 40.000000 20.000000 20.000000
vn -0.000000 1.000000 0.000000
vn -0.000000 1.000000 0.000000
vn -0.000000 1.000000 0.000000
vn -0.000000 1.000000 0.000000
vt 0.000000 0.000000
vt 0.000000 20.000000
vt 20.000000 0.000000
vt 20.000000 20.000000
f 40/40/40 38/38/38 37/37/37
f 40/40/40 37/37/37 39/39/39
v 20.000000 0.000000 0.000000
v 20.000000 20.000000 0.000000
v 40.000000 0.000000 0.000000
v 40.000000 20.000000 0.000000
vn -0.000000 -0.000000 -1.000000
vn -0.000000 -0.000000 -1.000000
vn -0.000000 -0.000000 -1.000000
vn -0.000000 -0.000000 -1.000000
vt 0.000000 0.000000
vt 0.000000 20.000000
vt 20.000000 0.000000
vt 20.000000 20.000000
f 44/44/44 41/41/41 42/42/42
f 44/44/44 43/43/43 41/41/41
v 20.000000 0.000000 20.000000
v 20.000000 20.000000 20.000000
v 40.000000 0.000000 20.000000
v 40.000000 20.000000 20.000000
vn 0.000000 0.000000 1.000000
vn 0.000000 0.000000 1.000000
vn 0.000000 0.000000 1.000000
vn 0.000000 0.000000 1.000000
vt 0.000000 0.000000
vt 0.000000 20.000000
vt 20.000000 0.000000
vt 20.000000 20.000000
f 48/48/48 46/46/46 45/45/45
f 48/48/48 45/45/45 47/47/47
